<?xml version="1.0" encoding="iso-8859-1"?>
<svg version="1.1" id="Layer_1" xmlns="http://www.w3.org/2000/svg" xmlns:xlink="http://www.w3.org/1999/xlink" x="0px" y="0px"
    viewBox="200 295 575 400" xml:space="preserve">
	<g>
		<polygon style="fill-rule:evenodd;clip-rule:evenodd;fill:#FFFFFF;" points="733.451,500.002 500.001,733.45 266.549,499.994 
			499.993,266.55 733.451,500.002 	"/>
		<path d="M741.726,508.277l-233.45,233.448L500.001,750l-8.273-8.275L258.273,508.268l-8.274-8.274l8.274-8.276l233.445-233.445
			l8.276-8.274l8.274,8.274l233.458,233.454l8.275,8.275L741.726,508.277L741.726,508.277z M500.001,716.901l216.9-216.898
			L499.993,283.099L283.098,499.994L500.001,716.901L500.001,716.901z"/>
		<polygon style="fill-rule:evenodd;clip-rule:evenodd;fill:#FAAE0B;" points="311.519,705.858 611.952,514.085 611.853,459.983 
			571.432,445.826 666.766,349.498 666.766,309.416 379.442,473.793 379.442,528.354 434.351,528.354 311.59,652.36 311.519,705.993 
			311.519,705.858 	"/>
		<path d="M331.031,670.283L592.468,503.4l-0.055-29.665l-27.368-9.585l-7.375-32.01l86.482-87.385L398.906,485.061v23.828h35.445
			l13.761,33.152L331.045,660.296L331.031,670.283L331.031,670.283z M622.445,530.507L322.012,722.281
			c-1.901,1.213-29.958,0.179-29.958-16.288v-0.134v-0.001l0.036-26.75l0.036-26.748c0.004-2.471,0.559-5.014,1.551-7.379
			c0.99-2.364,2.413-4.552,4.152-6.307l89.943-90.856h-8.33c-12.347-1.464-17.534-9.069-19.464-19.464v-54.561
			c0-6.506,4.16-13.645,9.808-16.877l287.323-164.379c23.728-2.387,27.827,6.445,29.119,16.879
			c1.755,5.154,3.715,12.591,4.126,20.858c0.53,10.628-1.502,22.627-9.826,32.91L606.82,437.66l11.42,4
			c7.083,2.479,13.064,10.82,13.079,18.323l0.097,54.102C631.428,520.321,627.703,527.152,622.445,530.507L622.445,530.507z
			M292.054,705.993h19.464h0.085H292.054L292.054,705.993z"/>
		<polygon style="fill-rule:evenodd;clip-rule:evenodd;fill:#FAAE0B;" points="311.678,705.57 612.113,513.796 612.025,459.686 
			571.602,445.538 666.926,349.206 666.926,309.119 379.603,473.502 379.603,528.056 434.506,528.056 311.75,652.055 
			311.678,705.688 311.678,705.57 	"/>
		<polygon style="fill-rule:evenodd;clip-rule:evenodd;fill:#F65110;" points="314.094,652.31 611.853,459.983 502.382,522.298 
			314.094,652.31 	"/>
		<polygon style="fill-rule:evenodd;clip-rule:evenodd;fill:#F65110;" points="486.894,474.29 384.836,474.29 456.908,479.852 
			486.894,474.29 	"/>
		<polygon style="fill-rule:evenodd;clip-rule:evenodd;fill:#F65110;" points="532.555,430.076 665.29,311.89 610.169,370.045 
			532.555,430.076 	"/>
		<polygon style="fill-rule:evenodd;clip-rule:evenodd;fill:#F5F8B3;" points="313.084,651.977 489.584,473.288 382.806,473.123 
			509.461,464.359 313.084,651.977 	"/>
		<polygon style="fill-rule:evenodd;clip-rule:evenodd;fill:#F5F8B3;" points="531.012,429.996 551.903,404.063 663.73,312.114 
			531.012,429.996 	"/>
	</g>
</svg>
